<svg width="18" height="16" viewBox="0 0 18 16" fill="none" xmlns="http://www.w3.org/2000/svg">
<path fill-rule="evenodd" clip-rule="evenodd" d="M8.07439 0.431901C6.64194 0.752637 5.66191 2.02977 5.73903 3.47524C5.79078 4.44588 6.27336 5.27606 7.09915 5.81516C7.65277 6.17656 8.36234 6.34378 9.00395 6.26405C10.4765 6.08105 11.5559 4.93642 11.6338 3.47524C11.686 2.49668 11.2385 1.54035 10.4575 0.961305C10.1948 0.766646 9.75712 0.55111 9.45145 0.465971C9.16482 0.386135 8.3669 0.36638 8.07439 0.431901ZM2.22983 2.60892C1.95615 2.68559 1.78944 2.76849 1.56309 2.94036C0.677592 3.61291 0.588814 4.93207 1.37609 5.71934C1.74738 6.09064 2.18566 6.27394 2.70215 6.27394C3.57731 6.27394 4.31905 5.68374 4.52116 4.82663C4.73302 3.92807 4.20719 2.96906 3.33117 2.65635C3.061 2.55989 2.49219 2.53541 2.22983 2.60892ZM14.1984 2.60892C13.9247 2.68559 13.758 2.76849 13.5316 2.94036C12.6461 3.61291 12.5574 4.93207 13.3446 5.71934C13.7159 6.09064 14.1542 6.27394 14.6707 6.27394C15.5458 6.27394 16.2876 5.68374 16.4897 4.82663C16.7016 3.92807 16.1757 2.96906 15.2997 2.65635C15.0295 2.55989 14.4607 2.53541 14.1984 2.60892ZM7.95538 7.43928C6.94418 7.58609 6.3585 7.80772 5.72808 8.28197C5.03717 8.80175 4.58301 9.42619 4.33395 10.1987C4.10114 10.921 4.04045 11.7082 4.08417 13.4385L4.10928 14.4329C4.11283 14.5735 4.14668 14.7118 4.20851 14.8381C4.33344 15.0934 4.54098 15.2954 4.81024 15.4235C4.95575 15.4928 5.11488 15.5288 5.27603 15.5288H8.51641C12.2022 15.5288 12.311 15.5246 12.6689 15.3707C12.8695 15.2844 13.0501 15.0917 13.17 14.8358C13.2291 14.7099 13.26 14.5727 13.2609 14.4337L13.2696 12.9752C13.2805 11.1486 13.2634 10.9008 13.0879 10.3436C12.6374 8.91338 11.3746 7.75886 9.97847 7.50068C9.7306 7.45485 8.17357 7.40759 7.95538 7.43928ZM1.7331 7.50816C0.990236 7.68687 0.342099 8.2937 0.0976959 9.03942C0.0323283 9.23888 -0.000976562 9.44745 -0.000976562 9.65735V11.5336V13.5639C-0.000976562 13.6708 0.0253701 13.776 0.0757309 13.8703C0.196062 14.0954 0.344445 14.243 0.55386 14.3459C0.681042 14.4083 0.820598 14.4415 0.962276 14.4429L1.83109 14.4518C2.42728 14.4579 2.95151 14.4537 2.99602 14.4425C3.04354 14.4306 3.07679 14.3878 3.07658 14.3388L3.07062 12.9694C3.06402 11.4583 3.08572 11.0771 3.21356 10.4558C3.39435 9.57722 3.81607 8.74544 4.39403 8.12757L4.47439 8.04164C4.51379 7.99952 4.50997 7.93301 4.46601 7.89568C4.31746 7.76953 3.84378 7.55475 3.60319 7.50439C3.27779 7.43632 2.02123 7.43883 1.7331 7.50816ZM13.7551 7.50623C13.4997 7.56161 13.1027 7.74281 12.9454 7.87579C12.8851 7.92681 12.8788 8.01758 12.9315 8.07646L13.0385 8.19598C13.6178 8.84306 13.9848 9.57852 14.1597 10.4433C14.2791 11.033 14.3031 11.4679 14.2997 12.9695L14.2965 14.339C14.2964 14.388 14.3296 14.4307 14.3771 14.4426C14.4216 14.4538 14.9381 14.4579 15.5249 14.4518C16.5301 14.4414 16.6008 14.4365 16.7489 14.3681C16.9645 14.2684 17.1744 14.0706 17.283 13.8649C17.3426 13.7518 17.3738 13.6259 17.3738 13.498V11.5166V9.66007C17.3738 9.44837 17.3402 9.23801 17.2743 9.03684C17.0286 8.28724 16.3757 7.68201 15.6227 7.50609C15.3282 7.43727 14.0727 7.43737 13.7551 7.50623Z" fill="#359CEF"/>
</svg>
