<svg width="9" height="12" viewBox="0 0 9 12" fill="none" xmlns="http://www.w3.org/2000/svg">
<path d="M4.41368 1.8229C4.41552 1.93528 4.427 2.04728 4.44797 2.15756C4.55868 2.70458 4.84194 3.19769 5.25294 3.55878C5.4818 3.76996 5.72215 3.96836 5.95461 4.16016C6.0958 4.27659 6.24197 4.39716 6.38122 4.51718C6.95746 4.99296 7.37011 5.64941 7.55763 6.38856C7.83793 7.63599 7.45764 8.96996 6.58893 9.78741C6.53112 9.84168 6.47097 9.89441 6.41026 9.94409C5.86702 10.388 5.1964 10.6305 4.50508 10.6332C3.98354 10.633 3.47101 10.4919 3.01781 10.224C2.3453 9.81866 1.83066 9.18173 1.56317 8.4237C1.38921 7.89837 1.32033 7.34176 1.36076 6.78785C1.40118 6.23394 1.55005 5.69438 1.79826 5.20227C1.82364 5.33289 1.85595 5.46194 1.89505 5.58886C2.03057 6.04512 2.2965 6.44782 2.65757 6.74355L3.23312 7.19842L3.22413 6.44752C3.2215 6.22959 3.19551 5.7042 3.18168 5.42196L3.17504 5.28554L3.17421 5.26949C3.16453 5.05414 3.1543 4.83046 3.13922 4.60908C3.0716 3.61935 3.54025 2.61657 4.4145 1.82395L4.41368 1.8229ZM4.91718 1C4.88732 1.01324 4.85814 1.0281 4.82978 1.04451C3.65655 1.82766 2.68301 3.10871 2.78728 4.63537C2.80249 4.85789 2.81245 5.08039 2.82254 5.30335C2.82877 5.43844 2.86818 6.1917 2.87136 6.4527C2.56753 6.20272 2.34417 5.86268 2.23095 5.47776C2.17184 5.28242 2.12923 5.08212 2.10359 4.87911C2.08782 4.75952 2.07746 4.63924 2.06999 4.51879C2.06639 4.45965 2.02228 4.22104 2.05616 4.17783C1.99033 4.26052 1.91787 4.34006 1.85551 4.42591C1.43658 5.00882 1.16085 5.68894 1.05217 6.40742C0.9435 7.12589 1.00517 7.86102 1.23183 8.54917C1.52614 9.38993 2.0968 10.0959 2.84329 10.5427C3.34952 10.8428 3.92244 11.0004 4.50536 11C5.27593 10.9987 6.02372 10.7285 6.62862 10.2329C6.69638 10.1776 6.7622 10.1199 6.82609 10.0598C7.81152 9.13262 8.2008 7.63854 7.90141 6.30641L7.90003 6.30024C7.69585 5.48507 7.24207 4.76085 6.60704 4.23664C6.23657 3.91707 5.84757 3.6183 5.48775 3.28595C5.13404 2.97742 4.88988 2.55497 4.7941 2.08577C4.74171 1.75868 4.77123 1.42308 4.87984 1.11125C4.88897 1.07952 4.89975 1.04924 4.91662 1H4.91718Z" fill="#FCFDFF"/>
<path d="M4.62332 9.42806C4.58112 9.42737 4.54056 9.41101 4.50899 9.38194C4.47742 9.35286 4.45693 9.31298 4.45124 9.26957C4.44555 9.22615 4.45504 9.18205 4.47799 9.14528C4.50093 9.10851 4.53581 9.08151 4.5763 9.06915C4.62428 9.05479 5.75008 8.70679 6.06786 7.02049C6.07109 6.99575 6.07915 6.97199 6.09156 6.9506C6.10397 6.92921 6.12045 6.91066 6.14 6.89613C6.15956 6.8816 6.18176 6.87136 6.20526 6.86606C6.22876 6.86076 6.25306 6.86049 6.27666 6.86529C6.30026 6.87009 6.32266 6.87984 6.3425 6.89396C6.36233 6.90807 6.37918 6.92625 6.392 6.94737C6.40482 6.96849 6.41335 6.99211 6.41706 7.01677C6.42077 7.04144 6.41959 7.06669 6.41358 7.09087C6.05196 9.0096 4.72551 9.40638 4.66937 9.42231C4.65433 9.42632 4.63884 9.42825 4.62332 9.42806Z" fill="#FCFDFF"/>
<path d="M4.41368 1.8229C4.41552 1.93528 4.427 2.04728 4.44797 2.15756C4.55868 2.70458 4.84194 3.19769 5.25294 3.55878C5.4818 3.76996 5.72215 3.96836 5.95461 4.16016C6.0958 4.27659 6.24197 4.39716 6.38122 4.51718C6.95746 4.99296 7.37011 5.64941 7.55763 6.38856C7.83793 7.63599 7.45764 8.96996 6.58893 9.78741C6.53112 9.84168 6.47097 9.89441 6.41026 9.94409C5.86702 10.388 5.1964 10.6305 4.50508 10.6332C3.98354 10.633 3.47101 10.4919 3.01781 10.224C2.3453 9.81866 1.83066 9.18173 1.56317 8.4237C1.38921 7.89837 1.32033 7.34176 1.36076 6.78785C1.40118 6.23394 1.55005 5.69438 1.79826 5.20227C1.82364 5.33289 1.85595 5.46194 1.89505 5.58886C2.03057 6.04512 2.2965 6.44782 2.65757 6.74355L3.23312 7.19842L3.22413 6.44752C3.2215 6.22959 3.19551 5.7042 3.18168 5.42196L3.17504 5.28554L3.17421 5.26949C3.16453 5.05414 3.1543 4.83046 3.13922 4.60908C3.0716 3.61935 3.54025 2.61657 4.4145 1.82395L4.41368 1.8229ZM4.91718 1C4.88732 1.01324 4.85814 1.0281 4.82978 1.04451C3.65655 1.82766 2.68301 3.10871 2.78728 4.63537C2.80249 4.85789 2.81245 5.08039 2.82254 5.30335C2.82877 5.43844 2.86818 6.1917 2.87136 6.4527C2.56753 6.20272 2.34417 5.86268 2.23095 5.47776C2.17184 5.28242 2.12923 5.08212 2.10359 4.87911C2.08782 4.75952 2.07746 4.63924 2.06999 4.51879C2.06639 4.45965 2.02228 4.22104 2.05616 4.17783C1.99033 4.26052 1.91787 4.34006 1.85551 4.42591C1.43658 5.00882 1.16085 5.68894 1.05217 6.40742C0.9435 7.12589 1.00517 7.86102 1.23183 8.54917C1.52614 9.38993 2.0968 10.0959 2.84329 10.5427C3.34952 10.8428 3.92244 11.0004 4.50536 11C5.27593 10.9987 6.02372 10.7285 6.62862 10.2329C6.69638 10.1776 6.7622 10.1199 6.82609 10.0598C7.81152 9.13262 8.2008 7.63854 7.90141 6.30641L7.90003 6.30024C7.69585 5.48507 7.24207 4.76085 6.60704 4.23664C6.23657 3.91707 5.84757 3.6183 5.48775 3.28595C5.13404 2.97742 4.88988 2.55497 4.7941 2.08577C4.74171 1.75868 4.77123 1.42308 4.87984 1.11125C4.88897 1.07952 4.89975 1.04924 4.91662 1H4.91718Z" stroke="white" stroke-width="0.2"/>
<path d="M4.62332 9.42806C4.58112 9.42737 4.54056 9.41101 4.50899 9.38194C4.47742 9.35286 4.45693 9.31298 4.45124 9.26957C4.44555 9.22615 4.45504 9.18205 4.47799 9.14528C4.50093 9.10851 4.53581 9.08151 4.5763 9.06915C4.62428 9.05479 5.75008 8.70679 6.06786 7.02049C6.07109 6.99575 6.07915 6.97199 6.09156 6.9506C6.10397 6.92921 6.12045 6.91066 6.14 6.89613C6.15956 6.8816 6.18176 6.87136 6.20526 6.86606C6.22876 6.86076 6.25306 6.86049 6.27666 6.86529C6.30026 6.87009 6.32266 6.87984 6.3425 6.89396C6.36233 6.90807 6.37918 6.92625 6.392 6.94737C6.40482 6.96849 6.41335 6.99211 6.41706 7.01677C6.42077 7.04144 6.41959 7.06669 6.41358 7.09087C6.05196 9.0096 4.72551 9.40638 4.66937 9.42231C4.65433 9.42632 4.63884 9.42825 4.62332 9.42806Z" stroke="white" stroke-width="0.2"/>
</svg>
