<svg width="15" height="16" viewBox="0 0 15 16" fill="none" xmlns="http://www.w3.org/2000/svg">
<g clip-path="url(#clip0_2987_6967)">
<path d="M4.27146 1.71232L1.52709 4.57375H4.27146V1.71232ZM2.65325 15.1584L14.989 14.263C14.989 14.5097 14.887 14.7339 14.7228 14.896C14.5572 15.0574 14.3301 15.1584 14.0821 15.1584H2.65325ZM14.989 2.75088V1.85022C14.989 2.08094 14.989 1.88846 14.989 2.08094V2.11297C14.989 2.3365 14.989 2.49859 14.989 2.74565V14.1012C14.989 14.3479 14.989 13.4639 14.989 13.7254C14.989 13.9705 14.989 14.263 14.989 14.263L2.65325 15.1584C2.40424 15.1584 2.23901 15.1584 2.00722 15.1584C1.62643 15.1584 1.89133 15.1584 1.74066 15.1584H0.910863C0.661857 15.1584 0.434705 15.0571 0.270466 14.8953C0.106559 14.7332 0.0039098 14.5087 0.0039098 14.263V5.11656C0.0039098 5.07931 0.00854556 5.04303 0.0171548 5.00839C0.0207972 4.90316 0.0618568 4.79892 0.140996 4.71656L4.31616 0.363295C4.35547 0.292737 4.41328 0.233909 4.48354 0.192973C4.55379 0.152037 4.63391 0.130499 4.7155 0.130616H14.0821C14.3128 0.130616 14.5254 0.217871 14.6867 0.361335L14.7228 0.393361C14.887 0.555125 14.989 0.778982 14.989 1.02604V2.75088ZM10.5672 4.57833C10.8205 4.57833 11.0258 4.77898 11.0258 5.02637C11.0258 5.27375 10.8205 5.47441 10.5672 5.47441H7.53768C7.28437 5.47441 7.07907 5.27375 7.07907 5.02637C7.07907 4.77898 7.28437 4.57833 7.53768 4.57833H10.5672ZM10.5672 7.60088C10.8205 7.60088 11.0258 7.80153 11.0258 8.04892C11.0258 8.2963 10.8205 8.49728 10.5672 8.49728H4.41947C4.16649 8.49728 3.96086 8.2963 3.96086 8.04892C3.96086 7.80153 4.16649 7.60088 4.41947 7.60088H10.5672ZM10.5672 10.6234C10.8205 10.6234 11.0258 10.8241 11.0258 11.0715C11.0258 11.3189 10.8205 11.5195 10.5672 11.5195H4.41947C4.16649 11.5195 3.96086 11.3189 3.96086 11.0715C3.96086 10.8241 4.16649 10.6234 4.41947 10.6234H10.5672ZM0.916493 5.47441V14.2581H14.0764V1.03127H5.18404V5.02408C5.18404 5.27277 4.97974 5.47441 4.72775 5.47441H0.916493Z" fill="#F9F9F9"/>
</g>
<defs>
<clipPath id="clip0_2987_6967">
<rect width="15" height="15" fill="white" transform="translate(0 0.14209)"/>
</clipPath>
</defs>
</svg>
