<svg xmlns="http://www.w3.org/2000/svg" width="24" height="24" viewBox="0 0 24 24" fill="none">
  <g opacity="0.7">
    <path d="M21.1781 7.01068L16.9884 2.82099C16.8666 2.6991 16.7219 2.60241 16.5626 2.53644C16.4034 2.47048 16.2327 2.43652 16.0603 2.43652C15.8879 2.43652 15.7173 2.47048 15.558 2.53644C15.3988 2.60241 15.2541 2.6991 15.1322 2.82099L3.57188 14.3822C3.44975 14.5039 3.35292 14.6486 3.28695 14.8079C3.22098 14.9672 3.18718 15.138 3.1875 15.3104V19.5001C3.1875 19.8482 3.32578 20.182 3.57192 20.4281C3.81807 20.6743 4.15191 20.8126 4.5 20.8126H8.68969C8.8621 20.8129 9.03287 20.7791 9.19216 20.7131C9.35145 20.6471 9.49611 20.5503 9.61781 20.4282L21.1781 8.86693C21.3 8.74505 21.3967 8.60036 21.4627 8.44111C21.5286 8.28186 21.5626 8.11118 21.5626 7.93881C21.5626 7.76643 21.5286 7.59575 21.4627 7.4365C21.3967 7.27725 21.3 7.13256 21.1781 7.01068ZM4.54594 15.0001L12.75 6.79506L14.5791 8.62506L6.375 16.8291L4.54594 15.0001ZM4.3125 19.5001V16.3576L7.64156 19.6876H4.5C4.45027 19.6876 4.40258 19.6678 4.36742 19.6326C4.33226 19.5975 4.3125 19.5498 4.3125 19.5001ZM9 19.4541L7.17094 17.6251L15.375 9.42006L17.2041 11.2501L9 19.4541ZM20.3822 8.07193L18 10.4541L13.5459 6.00006L15.9281 3.61693C15.9455 3.5995 15.9662 3.58567 15.989 3.57623C16.0117 3.5668 16.0361 3.56194 16.0608 3.56194C16.0854 3.56194 16.1098 3.5668 16.1326 3.57623C16.1553 3.58567 16.176 3.5995 16.1934 3.61693L20.3822 7.80662C20.3996 7.82403 20.4135 7.84471 20.4229 7.86747C20.4323 7.89024 20.4372 7.91463 20.4372 7.93927C20.4372 7.96391 20.4323 7.98831 20.4229 8.01108C20.4135 8.03384 20.3996 8.05452 20.3822 8.07193Z" fill="white"/>
  </g>
</svg>