<svg width="23" height="25" viewBox="0 0 23 25" fill="none" xmlns="http://www.w3.org/2000/svg">
<path opacity="0.2" d="M18.5714 17.042C19.0298 16.5296 19.8176 16.4856 20.33 16.9439C20.8425 17.4026 20.8865 18.1905 20.4278 18.7029L16.7514 22.8004C16.2927 23.3128 15.5049 23.3569 14.9928 22.8981L14.9113 22.8186L11.2329 18.8632C10.7633 18.3589 10.7916 17.569 11.2963 17.0998C11.8007 16.6302 12.5906 16.6584 13.0598 17.1632L14.5725 18.791V11.9051C14.5725 11.2142 15.1326 10.6545 15.8231 10.6545C16.5136 10.6545 17.0737 11.2142 17.0737 11.9051V18.711L18.5714 17.042Z" fill="#F9F9F9"/>
<path d="M7.78412 14.1166C8.47464 14.1166 9.03473 13.5565 9.03473 12.866V5.78229L10.5321 7.45125C10.9908 7.96368 11.7786 8.0077 12.2907 7.54897C12.8031 7.09064 12.8471 6.3028 12.3888 5.79037L8.71208 1.69288C8.25376 1.18044 7.46592 1.13643 6.95348 1.59476L6.87029 1.67309L3.19358 5.62965C2.72435 6.13441 2.75262 6.92427 3.25698 7.3935C3.76134 7.86313 4.5512 7.83487 5.02083 7.3301L6.53311 5.70233V12.866C6.53311 13.5565 7.0932 14.1166 7.78412 14.1166Z" fill="#7CC3E6"/>
</svg>
