<svg width="13" height="22" viewBox="0 0 13 22" fill="none" xmlns="http://www.w3.org/2000/svg">
<path d="M11.3259 6.11177L11.2608 6.03551C10.6866 5.35827 9.94972 3.38618 9.71494 1.26148C9.63358 0.529397 9.16169 0 8.59216 0H5.04714C4.47297 0 3.99873 0.536509 3.92201 1.27813C3.6942 3.5006 2.955 5.3845 2.37385 6.03073L2.29712 6.11655C1.91221 6.28778 1.58442 6.57056 1.354 6.93021C1.12357 7.28986 1.00054 7.71078 1 8.14115V13.8595C1.00054 14.2899 1.12357 14.7107 1.354 15.0703C1.58442 15.43 1.91221 15.7127 2.29712 15.884L2.37385 15.9699C2.955 16.6161 3.6942 18.4999 3.92201 20.7224C3.99873 21.464 4.47297 22.0006 5.04714 22.0006H8.59216C9.16169 22.0006 9.63358 21.4712 9.71494 20.7392C9.94972 18.6145 10.6866 16.6423 11.2608 15.9627L11.3212 15.8887C11.7091 15.719 12.0398 15.4363 12.2724 15.0755C12.5051 14.7148 12.6294 14.292 12.63 13.8595V8.14115C12.6292 7.70929 12.5053 7.28704 12.2736 6.92648C12.0419 6.56592 11.7125 6.28273 11.3259 6.11177ZM4.51247 1.34019C4.55432 0.930033 4.78911 0.60815 5.04714 0.60815H8.59216C8.84555 0.60815 9.08031 0.925193 9.12448 1.3282C9.3151 3.0499 9.86139 4.87892 10.4681 5.93292H3.17815C3.79882 4.89323 4.33115 3.10243 4.51247 1.34019ZM9.12448 20.67C9.08031 21.0754 8.84555 21.3925 8.59216 21.3925H5.04714C4.78911 21.3925 4.55432 21.0705 4.51247 20.658C4.33115 18.8981 3.79882 17.1073 3.17815 16.0676H10.4681C9.86139 17.1216 9.3151 18.9507 9.12542 20.67H9.12448ZM12.0372 13.8595C12.0367 14.2837 11.8722 14.6904 11.5798 14.9903C11.2874 15.2903 10.891 15.4591 10.4774 15.4596H3.15491C2.74101 15.4596 2.34401 15.291 2.05112 14.991C1.75823 14.691 1.59337 14.2841 1.59276 13.8595V8.14115C1.59331 7.71654 1.75816 7.30952 2.05107 7.0095C2.34397 6.70948 2.74099 6.54101 3.15491 6.54107H10.4774C10.891 6.54152 11.2874 6.71022 11.5799 7.0102C11.8723 7.31018 12.0368 7.71692 12.0372 8.14115V13.8595Z" fill="#F9F9F9" stroke="#F9F9F9" stroke-width="0.3"/>
<path d="M10.5279 11.6557C10.5282 11.7466 10.5004 11.8354 10.4485 11.9091C10.3965 11.9828 10.3231 12.0376 10.2388 12.0657C10.1545 12.0938 10.0637 12.0937 9.97945 12.0655C9.8952 12.0372 9.82188 11.9822 9.77004 11.9085H8.71698C8.65455 11.9104 8.59351 11.8894 8.54491 11.8491C8.4963 11.8089 8.46333 11.7521 8.45197 11.6891L8.0475 9.72182L7.13627 13.0389C7.1197 13.0951 7.08583 13.1442 7.03973 13.1791C6.99364 13.2139 6.93778 13.2325 6.88054 13.232H6.87359C6.81857 13.2352 6.76409 13.2193 6.71896 13.1869C6.67384 13.1544 6.64068 13.1073 6.62484 13.0532L5.72289 10.7353L5.3742 11.7392C5.35828 11.7929 5.32597 11.84 5.28203 11.8735C5.2381 11.9069 5.18487 11.9251 5.13013 11.9253H3.26812C3.19753 11.9253 3.12982 11.8965 3.0799 11.8453C3.02999 11.7941 3.00195 11.7246 3.00195 11.6522C3.00195 11.5798 3.02999 11.5103 3.0799 11.4591C3.12982 11.4078 3.19753 11.3792 3.26812 11.3792H4.94416L5.47185 9.86492C5.48777 9.8112 5.52008 9.76415 5.56401 9.73066C5.60795 9.69718 5.66121 9.67897 5.71594 9.67885C5.77067 9.67569 5.82482 9.69166 5.86957 9.72414C5.91432 9.75662 5.94702 9.8037 5.96233 9.8577L6.83871 12.1112L7.83365 8.49608C7.8504 8.43859 7.88526 8.38852 7.9328 8.35357C7.98034 8.31861 8.03788 8.30072 8.09633 8.30291C8.15669 8.30131 8.21543 8.32298 8.26103 8.36358C8.30663 8.40418 8.33578 8.46087 8.34273 8.5224L8.93086 11.3624H9.80258C9.84107 11.3181 9.8884 11.2829 9.94134 11.259C9.99429 11.2352 10.0516 11.2232 10.1094 11.2241C10.1646 11.2241 10.2192 11.2353 10.2701 11.257C10.321 11.2788 10.3672 11.3105 10.4061 11.3507C10.445 11.3908 10.4758 11.4384 10.4967 11.4907C10.5176 11.5431 10.5282 11.5991 10.5279 11.6557Z" fill="#359CEF" stroke="#359CEF" stroke-width="0.1"/>
</svg>
