<svg width="13" height="22" viewBox="0 0 13 22" fill="none" xmlns="http://www.w3.org/2000/svg">
<path d="M11.3256 6.1116L11.2605 6.03533C10.6864 5.35812 9.94947 3.38608 9.71469 1.26144C9.63333 0.529381 9.16146 0 8.59195 0H5.04703C4.47287 0 3.99864 0.536493 3.92193 1.27809C3.69413 3.5005 2.95494 5.38434 2.37381 6.03056L2.29708 6.11637C1.91219 6.28759 1.58441 6.57037 1.35399 6.93001C1.12357 7.28965 1.00054 7.71055 1 8.14092V13.8591C1.00054 14.2894 1.12357 14.7102 1.35399 15.0699C1.58441 15.4295 1.91219 15.7123 2.29708 15.8835L2.37381 15.9694C2.95494 16.6157 3.69413 18.4994 3.92193 20.7218C3.99864 21.4634 4.47287 22 5.04703 22H8.59195C9.16146 22 9.63333 21.4706 9.71469 20.7386C9.94947 18.6139 10.6864 16.6418 11.2605 15.9622L11.321 15.8883C11.7088 15.7186 12.0395 15.4358 12.2721 15.0751C12.5047 14.7144 12.6291 14.2916 12.6297 13.8591V8.14092C12.6289 7.70907 12.505 7.28683 12.2733 6.92628C12.0416 6.56573 11.7122 6.28255 11.3256 6.1116ZM4.51237 1.34015C4.55421 0.930006 4.789 0.608132 5.04703 0.608132H8.59195C8.84532 0.608132 9.08008 0.925167 9.12425 1.32816C9.31486 3.04981 9.86113 4.87878 10.4678 5.93275H3.17809C3.79874 4.89309 4.33106 3.10234 4.51237 1.34015ZM9.12425 20.6694C9.08008 21.0748 8.84532 21.3919 8.59195 21.3919H5.04703C4.789 21.3919 4.55421 21.0699 4.51237 20.6574C4.33106 18.8976 3.79874 17.1068 3.17809 16.0671H10.4678C9.86113 17.1211 9.31487 18.9501 9.12518 20.6694H9.12425ZM12.0369 13.8591C12.0364 14.2833 11.8719 14.6899 11.5795 14.9899C11.2871 15.2898 10.8907 15.4586 10.4771 15.4591H3.15485C2.74096 15.4591 2.34397 15.2906 2.05109 14.9906C1.75821 14.6906 1.59336 14.2837 1.59274 13.8591V8.14092C1.59329 7.71632 1.75814 7.30931 2.05104 7.0093C2.34393 6.70929 2.74094 6.54082 3.15485 6.54089H10.4771C10.8907 6.54133 11.2871 6.71003 11.5796 7.01C11.872 7.30997 12.0365 7.71669 12.0369 8.14092V13.8591Z" fill="#359CEF" stroke="#359CEF" stroke-width="0.264"/>
<path d="M10.5296 11.6556C10.53 11.7465 10.5021 11.8353 10.4502 11.909C10.3983 11.9826 10.3248 12.0375 10.2406 12.0656C10.1563 12.0937 10.0655 12.0936 9.98121 12.0653C9.89696 12.0371 9.82363 11.9821 9.77179 11.9084H8.71877C8.65634 11.9103 8.59531 11.8893 8.5467 11.849C8.4981 11.8088 8.46512 11.752 8.45377 11.689L8.0493 9.72177L7.1381 13.0387C7.12154 13.0949 7.08766 13.1441 7.04157 13.1789C6.99548 13.2137 6.93962 13.2323 6.88238 13.2319H6.87543C6.82041 13.2351 6.76593 13.2192 6.72081 13.1867C6.67569 13.1543 6.64253 13.1072 6.62669 13.0531L5.72477 10.7352L5.37609 11.7391C5.36016 11.7928 5.32786 11.8399 5.28392 11.8733C5.23999 11.9068 5.18676 11.925 5.13203 11.9252H3.27007C3.19948 11.9252 3.13177 11.8964 3.08185 11.8452C3.03194 11.794 3.00391 11.7245 3.00391 11.6521C3.00391 11.5797 3.03194 11.5102 3.08185 11.459C3.13177 11.4078 3.19948 11.3791 3.27007 11.3791H4.94605L5.47373 9.86487C5.48965 9.81115 5.52196 9.7641 5.56589 9.73062C5.60983 9.69714 5.66308 9.67893 5.71781 9.67881C5.77255 9.67566 5.82669 9.69162 5.87144 9.7241C5.91619 9.75658 5.94889 9.80366 5.9642 9.85765L6.84056 12.1111L7.83546 8.49608C7.85221 8.43859 7.88707 8.38852 7.93461 8.35356C7.98215 8.31861 8.03968 8.30072 8.09814 8.30291C8.1585 8.30131 8.21723 8.32298 8.26283 8.36358C8.30843 8.40418 8.33758 8.46087 8.34452 8.52239L8.93264 11.3623H9.80434C9.84283 11.3181 9.89016 11.2828 9.9431 11.2589C9.99604 11.2351 10.0533 11.2231 10.1112 11.224C10.1663 11.224 10.2209 11.2352 10.2718 11.257C10.3227 11.2787 10.369 11.3105 10.4079 11.3506C10.4467 11.3907 10.4775 11.4383 10.4984 11.4906C10.5193 11.543 10.5299 11.5991 10.5296 11.6556Z" fill="#F9F9F9" stroke="#F9F9F9" stroke-width="0.088"/>
</svg>
