<svg width="28" height="51" viewBox="0 0 28 51" fill="none" xmlns="http://www.w3.org/2000/svg">
<path d="M24.8602 14.1678L24.7036 13.991C23.3212 12.4211 21.5471 7.84956 20.9818 2.92425C20.7859 1.2272 19.6498 0 18.2786 0H9.74377C8.3614 0 7.21963 1.24369 7.03495 2.96285C6.48647 8.11479 4.70679 12.4819 3.30763 13.9799L3.1229 14.1789C2.19621 14.5758 1.40704 15.2313 0.852271 16.065C0.297502 16.8987 0.00130394 17.8745 0 18.8721V32.1279C0.00130394 33.1255 0.297502 34.101 0.852271 34.9347C1.40704 35.7684 2.19621 36.4239 3.1229 36.8209L3.30763 37.0201C4.70679 38.5181 6.48647 42.8849 7.03495 48.0369C7.21963 49.756 8.3614 51 9.74377 51H18.2786C19.6498 51 20.7859 49.7728 20.9818 48.0758C21.5471 43.1504 23.3212 38.5788 24.7036 37.0033L24.8491 36.8319C25.7828 36.4385 26.579 35.7831 27.1391 34.9469C27.6992 34.1106 27.9986 33.1305 28 32.1279V18.8721C27.9981 17.871 27.6998 16.8922 27.142 16.0564C26.5841 15.2206 25.791 14.5641 24.8602 14.1678ZM8.45651 3.10671C8.55725 2.15592 9.12254 1.40976 9.74377 1.40976H18.2786C18.8887 1.40976 19.4539 2.14471 19.5602 3.07891C20.0191 7.07001 21.3344 11.3099 22.7951 13.7532H5.24405C6.73835 11.3431 8.01998 7.19179 8.45651 3.10671ZM19.5602 47.9154C19.4539 48.8552 18.8887 49.5902 18.2786 49.5902H9.74377C9.12254 49.5902 8.55725 48.8439 8.45651 47.8876C8.01998 43.8081 6.73835 39.6567 5.24405 37.2465H22.7951C21.3344 39.6898 20.0192 43.9298 19.5625 47.9154H19.5602ZM26.5728 32.1279C26.5716 33.1113 26.1756 34.0539 25.4716 34.7493C24.7676 35.4446 23.8131 35.8359 22.8175 35.837H5.1881C4.1916 35.837 3.2358 35.4464 2.53065 34.7509C1.8255 34.0555 1.42858 33.1121 1.4271 32.1279V18.8721C1.42844 17.8878 1.82533 16.9443 2.53051 16.2488C3.2357 15.5533 4.19156 15.1628 5.1881 15.163H22.8175C23.8132 15.164 24.7677 15.5551 25.4717 16.2504C26.1758 16.9458 26.5718 17.8887 26.5728 18.8721V32.1279Z" fill="#FCFDFF"/>
<path d="M22.9406 27.0199C22.9415 27.2307 22.8745 27.4365 22.7495 27.6072C22.6244 27.778 22.4477 27.9051 22.2447 27.9703C22.0418 28.0354 21.8231 28.0352 21.6203 27.9697C21.4175 27.9043 21.2409 27.7768 21.1161 27.6059H18.5808C18.4305 27.6103 18.2836 27.5615 18.1665 27.4682C18.0495 27.3749 17.9701 27.2434 17.9428 27.0974L16.969 22.5369L14.7751 30.2262C14.7353 30.3565 14.6537 30.4705 14.5427 30.5512C14.4317 30.6319 14.2973 30.675 14.1595 30.674H14.1427C14.0103 30.6814 13.8791 30.6445 13.7705 30.5693C13.6618 30.4941 13.582 30.3849 13.5438 30.2594L11.3723 24.8862L10.5328 27.2134C10.4945 27.338 10.4167 27.447 10.3109 27.5246C10.2052 27.6023 10.077 27.6445 9.94524 27.6448H5.46233C5.29237 27.6448 5.12935 27.578 5.00917 27.4593C4.88899 27.3406 4.8215 27.1797 4.8215 27.0118C4.8215 26.8439 4.88899 26.6827 5.00917 26.564C5.12935 26.4453 5.29237 26.3789 5.46233 26.3789H9.49748L10.7679 22.8686C10.8063 22.7441 10.884 22.635 10.9898 22.5574C11.0956 22.4798 11.2238 22.4376 11.3556 22.4373C11.4874 22.43 11.6177 22.467 11.7255 22.5423C11.8332 22.6176 11.9119 22.7267 11.9488 22.8519L14.0588 28.0758L16.4541 19.6955C16.4945 19.5622 16.5784 19.4462 16.6928 19.3651C16.8073 19.2841 16.9458 19.2426 17.0866 19.2477C17.2319 19.244 17.3733 19.2942 17.4831 19.3883C17.5929 19.4825 17.663 19.6139 17.6798 19.7565L19.0957 26.34H21.1945C21.2871 26.2374 21.4011 26.1556 21.5285 26.1003C21.656 26.045 21.794 26.0173 21.9332 26.0193C22.066 26.0193 22.1974 26.0454 22.32 26.0957C22.4426 26.1461 22.5539 26.2197 22.6475 26.3127C22.7411 26.4057 22.8152 26.5161 22.8655 26.6374C22.9158 26.7588 22.9414 26.8888 22.9406 27.0199Z" fill="#FCFDFF"/>
</svg>
